w1000b1r50.ufo
<glyph name="_1" format="2">
  <advance width="1000"/>
  <unicode hex="0101"/>
  <unicode hex="002E"/><unicode hex="002D"/><unicode hex="2013"/><unicode hex="2014"/><unicode hex="2015"/><unicode hex="002A"/><unicode hex="005F"/><unicode hex="2581"/><unicode hex="0061"/>
  <outline>
    <component base="cap" xOffset="0" yOffset="0.000" />
    <component base="cap" xOffset="0" yOffset="9.000" />
    <contour>
      <point x="0.000" y="0.500" type="line"/>
      <point x="0.000" y="9.500" type="line"/>
      <point x="1.000" y="9.500" type="line"/>
      <point x="1.000" y="0.500" type="line"/>
    </contour>
  </outline>
</glyph>
<glyph name="_2" format="2">
  <advance width="1000"/>
  <unicode hex="0102"/>
  <unicode hex="0062"/>
  <outline>
    <component base="cap" xOffset="0" yOffset="0.000" />
    <component base="cap" xOffset="0" yOffset="19.000" />
    <contour>
      <point x="0.000" y="0.500" type="line"/>
      <point x="0.000" y="19.500" type="line"/>
      <point x="1.000" y="19.500" type="line"/>
      <point x="1.000" y="0.500" type="line"/>
    </contour>
  </outline>
</glyph>
<glyph name="_12" format="2">
  <advance width="1000"/>
  <unicode hex="010C"/>
  <unicode hex="0067"/>
  <outline>
    <component base="cap" xOffset="0" yOffset="0.000" />
    <component base="cap" xOffset="0" yOffset="119.000" />
    <contour>
      <point x="0.000" y="0.500" type="line"/>
      <point x="0.000" y="119.500" type="line"/>
      <point x="1.000" y="119.500" type="line"/>
      <point x="1.000" y="0.500" type="line"/>
    </contour>
  </outline>
</glyph>
<glyph name="_16" format="2">
  <advance width="1000"/>
  <unicode hex="0110"/>
  <unicode hex="0069"/>
  <outline>
    <component base="cap" xOffset="0" yOffset="0.000" />
    <component base="cap" xOffset="0" yOffset="159.000" />
    <contour>
      <point x="0.000" y="0.500" type="line"/>
      <point x="0.000" y="159.500" type="line"/>
      <point x="1.000" y="159.500" type="line"/>
      <point x="1.000" y="0.500" type="line"/>
    </contour>
  </outline>
</glyph>
<glyph name="_23" format="2">
  <advance width="1000"/>
  <unicode hex="0117"/>
  
  <outline>
    <component base="cap" xOffset="0" yOffset="0.000" />
    <component base="cap" xOffset="0" yOffset="229.000" />
    <contour>
      <point x="0.000" y="0.500" type="line"/>
      <point x="0.000" y="229.500" type="line"/>
      <point x="1.000" y="229.500" type="line"/>
      <point x="1.000" y="0.500" type="line"/>
    </contour>
  </outline>
</glyph>
<glyph name="_29" format="2">
  <advance width="1000"/>
  <unicode hex="011D"/>
  
  <outline>
    <component base="cap" xOffset="0" yOffset="0" />
    <component base="cap" xOffset="0" yOffset="289" />
    <contour>
      <point x="0" y="1" type="line"/>
      <point x="0" y="290" type="line"/>
      <point x="1" y="290" type="line"/>
      <point x="1" y="1" type="line"/>
    </contour>
  </outline>
</glyph>
<glyph name="_30" format="2">
  <advance width="1000"/>
  <unicode hex="011E"/>
  <unicode hex="0033"/><unicode hex="0070"/>
  <outline>
    <component base="cap" xOffset="0" yOffset="0.000" />
    <component base="cap" xOffset="0" yOffset="299.000" />
    <contour>
      <point x="0.000" y="0.500" type="line"/>
      <point x="0.000" y="299.500" type="line"/>
      <point x="1.000" y="299.500" type="line"/>
      <point x="1.000" y="0.500" type="line"/>
    </contour>
  </outline>
</glyph>
<glyph name="_36" format="2">
  <advance width="1000"/>
  <unicode hex="0124"/>
  <unicode hex="0073"/>
  <outline>
    <component base="cap" xOffset="0" yOffset="0.000" />
    <component base="cap" xOffset="0" yOffset="359.000" />
    <contour>
      <point x="0.000" y="0.500" type="line"/>
      <point x="0.000" y="359.500" type="line"/>
      <point x="1.000" y="359.500" type="line"/>
      <point x="1.000" y="0.500" type="line"/>
    </contour>
  </outline>
</glyph>
<glyph name="_40" format="2">
  <advance width="1000"/>
  <unicode hex="0128"/>
  <unicode hex="0034"/><unicode hex="0075"/>
  <outline>
    <component base="cap" xOffset="0" yOffset="0.000" />
    <component base="cap" xOffset="0" yOffset="399.000" />
    <contour>
      <point x="0.000" y="0.500" type="line"/>
      <point x="0.000" y="399.500" type="line"/>
      <point x="1.000" y="399.500" type="line"/>
      <point x="1.000" y="0.500" type="line"/>
    </contour>
  </outline>
</glyph>
<glyph name="_43" format="2">
  <advance width="1000"/>
  <unicode hex="012B"/>
  
  <outline>
    <component base="cap" xOffset="0" yOffset="0.000" />
    <component base="cap" xOffset="0" yOffset="429.000" />
    <contour>
      <point x="0.000" y="0.500" type="line"/>
      <point x="0.000" y="429.500" type="line"/>
      <point x="1.000" y="429.500" type="line"/>
      <point x="1.000" y="0.500" type="line"/>
    </contour>
  </outline>
</glyph>
<glyph name="_47" format="2">
  <advance width="1000"/>
  <unicode hex="012F"/>
  
  <outline>
    <component base="cap" xOffset="0" yOffset="0.000" />
    <component base="cap" xOffset="0" yOffset="469.000" />
    <contour>
      <point x="0.000" y="0.500" type="line"/>
      <point x="0.000" y="469.500" type="line"/>
      <point x="1.000" y="469.500" type="line"/>
      <point x="1.000" y="0.500" type="line"/>
    </contour>
  </outline>
</glyph>
<glyph name="_50" format="2">
  <advance width="1000"/>
  <unicode hex="0132"/>
  <unicode hex="0035"/><unicode hex="007A"/>
  <outline>
    <component base="cap" xOffset="0" yOffset="0.000" />
    <component base="cap" xOffset="0" yOffset="499.000" />
    <contour>
      <point x="0.000" y="0.500" type="line"/>
      <point x="0.000" y="499.500" type="line"/>
      <point x="1.000" y="499.500" type="line"/>
      <point x="1.000" y="0.500" type="line"/>
    </contour>
  </outline>
</glyph>
<glyph name="_52" format="2">
  <advance width="1000"/>
  <unicode hex="0134"/>
  <unicode hex="0041"/>
  <outline>
    <component base="cap" xOffset="0" yOffset="0.000" />
    <component base="cap" xOffset="0" yOffset="519.000" />
    <contour>
      <point x="0.000" y="0.500" type="line"/>
      <point x="0.000" y="519.500" type="line"/>
      <point x="1.000" y="519.500" type="line"/>
      <point x="1.000" y="0.500" type="line"/>
    </contour>
  </outline>
</glyph>
<glyph name="_58" format="2">
  <advance width="1000"/>
  <unicode hex="013A"/>
  <unicode hex="0044"/>
  <outline>
    <component base="cap" xOffset="0" yOffset="0.000" />
    <component base="cap" xOffset="0" yOffset="579.000" />
    <contour>
      <point x="0.000" y="0.500" type="line"/>
      <point x="0.000" y="579.500" type="line"/>
      <point x="1.000" y="579.500" type="line"/>
      <point x="1.000" y="0.500" type="line"/>
    </contour>
  </outline>
</glyph>
<glyph name="_59" format="2">
  <advance width="1000"/>
  <unicode hex="013B"/>
  
  <outline>
    <component base="cap" xOffset="0" yOffset="0.000" />
    <component base="cap" xOffset="0" yOffset="589.000" />
    <contour>
      <point x="0.000" y="0.500" type="line"/>
      <point x="0.000" y="589.500" type="line"/>
      <point x="1.000" y="589.500" type="line"/>
      <point x="1.000" y="0.500" type="line"/>
    </contour>
  </outline>
</glyph>
<glyph name="_63" format="2">
  <advance width="1000"/>
  <unicode hex="013F"/>
  
  <outline>
    <component base="cap" xOffset="0" yOffset="0.000" />
    <component base="cap" xOffset="0" yOffset="629.000" />
    <contour>
      <point x="0.000" y="0.500" type="line"/>
      <point x="0.000" y="629.500" type="line"/>
      <point x="1.000" y="629.500" type="line"/>
      <point x="1.000" y="0.500" type="line"/>
    </contour>
  </outline>
</glyph>
<glyph name="_69" format="2">
  <advance width="1000"/>
  <unicode hex="0145"/>
  
  <outline>
    <component base="cap" xOffset="0" yOffset="0.000" />
    <component base="cap" xOffset="0" yOffset="689.000" />
    <contour>
      <point x="0.000" y="0.500" type="line"/>
      <point x="0.000" y="689.500" type="line"/>
      <point x="1.000" y="689.500" type="line"/>
      <point x="1.000" y="0.500" type="line"/>
    </contour>
  </outline>
</glyph>
<glyph name="_87" format="2">
  <advance width="1000"/>
  <unicode hex="0157"/>
  
  <outline>
    <component base="cap" xOffset="0" yOffset="0.000" />
    <component base="cap" xOffset="0" yOffset="869.000" />
    <contour>
      <point x="0.000" y="0.500" type="line"/>
      <point x="0.000" y="869.500" type="line"/>
      <point x="1.000" y="869.500" type="line"/>
      <point x="1.000" y="0.500" type="line"/>
    </contour>
  </outline>
</glyph>
<glyph name="_94" format="2">
  <advance width="1000"/>
  <unicode hex="015E"/>
  <unicode hex="0056"/>
  <outline>
    <component base="cap" xOffset="0" yOffset="0.000" />
    <component base="cap" xOffset="0" yOffset="939.000" />
    <contour>
      <point x="0.000" y="0.500" type="line"/>
      <point x="0.000" y="939.500" type="line"/>
      <point x="1.000" y="939.500" type="line"/>
      <point x="1.000" y="0.500" type="line"/>
    </contour>
  </outline>
</glyph>
<glyph name="_96" format="2">
  <advance width="1000"/>
  <unicode hex="0160"/>
  <unicode hex="0057"/>
  <outline>
    <component base="cap" xOffset="0" yOffset="0.000" />
    <component base="cap" xOffset="0" yOffset="959.000" />
    <contour>
      <point x="0.000" y="0.500" type="line"/>
      <point x="0.000" y="959.500" type="line"/>
      <point x="1.000" y="959.500" type="line"/>
      <point x="1.000" y="0.500" type="line"/>
    </contour>
  </outline>
</glyph>
<glyph name="_99" format="2">
  <advance width="1000"/>
  <unicode hex="0163"/>
  <unicode hex="0059"/>
  <outline>
    <component base="cap" xOffset="0" yOffset="0.000" />
    <component base="cap" xOffset="0" yOffset="989.000" />
    <contour>
      <point x="0.000" y="0.500" type="line"/>
      <point x="0.000" y="989.500" type="line"/>
      <point x="1.000" y="989.500" type="line"/>
      <point x="1.000" y="0.500" type="line"/>
    </contour>
  </outline>
</glyph>
<glyph name="_100" format="2">
  <advance width="1000"/>
  <unicode hex="0164"/>
  <unicode hex="007C"/><unicode hex="2588"/><unicode hex="005A"/>
  <outline>
    <component base="cap" xOffset="0" yOffset="0.000" />
    <component base="cap" xOffset="0" yOffset="999.000" />
    <contour>
      <point x="0.000" y="0.500" type="line"/>
      <point x="0.000" y="999.500" type="line"/>
      <point x="1.000" y="999.500" type="line"/>
      <point x="1.000" y="0.500" type="line"/>
    </contour>
  </outline>
</glyph>
<glyph name="_103" format="2">
  <advance width="1000"/>
  <unicode hex="0167"/>
  
  <outline>
    <component base="cap" xOffset="0" yOffset="0.000" />
    <component base="cap" xOffset="0" yOffset="1029.000" />
    <contour>
      <point x="0.000" y="0.500" type="line"/>
      <point x="0.000" y="1029.500" type="line"/>
      <point x="1.000" y="1029.500" type="line"/>
      <point x="1.000" y="0.500" type="line"/>
    </contour>
  </outline>
</glyph>
<glyph name="_104" format="2">
  <advance width="1000"/>
  <unicode hex="0168"/>
  
  <outline>
    <component base="cap" xOffset="0" yOffset="0.000" />
    <component base="cap" xOffset="0" yOffset="1039.000" />
    <contour>
      <point x="0.000" y="0.500" type="line"/>
      <point x="0.000" y="1039.500" type="line"/>
      <point x="1.000" y="1039.500" type="line"/>
      <point x="1.000" y="0.500" type="line"/>
    </contour>
  </outline>
</glyph>
<glyph name="_1.center" format="2">
  <advance width="1000"/>
  <unicode hex="0401"/>
  
  <outline>
    <component base="cap" xOffset="0" yOffset="495.000" />
    <component base="cap" xOffset="0" yOffset="504.000" />
    <contour>
      <point x="0.000" y="495.500" type="line"/>
      <point x="0.000" y="504.500" type="line"/>
      <point x="1.000" y="504.500" type="line"/>
      <point x="1.000" y="495.500" type="line"/>
    </contour>
  </outline>
</glyph>
<glyph name="_5.center" format="2">
  <advance width="1000"/>
  <unicode hex="0405"/>
  
  <outline>
    <component base="cap" xOffset="0" yOffset="475.000" />
    <component base="cap" xOffset="0" yOffset="524.000" />
    <contour>
      <point x="0.000" y="475.500" type="line"/>
      <point x="0.000" y="524.500" type="line"/>
      <point x="1.000" y="524.500" type="line"/>
      <point x="1.000" y="475.500" type="line"/>
    </contour>
  </outline>
</glyph>
<glyph name="_6.center" format="2">
  <advance width="1000"/>
  <unicode hex="0406"/>
  
  <outline>
    <component base="cap" xOffset="0" yOffset="470.000" />
    <component base="cap" xOffset="0" yOffset="529.000" />
    <contour>
      <point x="0.000" y="470.500" type="line"/>
      <point x="0.000" y="529.500" type="line"/>
      <point x="1.000" y="529.500" type="line"/>
      <point x="1.000" y="470.500" type="line"/>
    </contour>
  </outline>
</glyph>
<glyph name="_11.center" format="2">
  <advance width="1000"/>
  <unicode hex="040B"/>
  
  <outline>
    <component base="cap" xOffset="0" yOffset="445.000" />
    <component base="cap" xOffset="0" yOffset="554.000" />
    <contour>
      <point x="0.000" y="445.500" type="line"/>
      <point x="0.000" y="554.500" type="line"/>
      <point x="1.000" y="554.500" type="line"/>
      <point x="1.000" y="445.500" type="line"/>
    </contour>
  </outline>
</glyph>
<glyph name="_14.center" format="2">
  <advance width="1000"/>
  <unicode hex="040E"/>
  
  <outline>
    <component base="cap" xOffset="0" yOffset="430.000" />
    <component base="cap" xOffset="0" yOffset="569.000" />
    <contour>
      <point x="0.000" y="430.500" type="line"/>
      <point x="0.000" y="569.500" type="line"/>
      <point x="1.000" y="569.500" type="line"/>
      <point x="1.000" y="430.500" type="line"/>
    </contour>
  </outline>
</glyph>
<glyph name="_15.center" format="2">
  <advance width="1000"/>
  <unicode hex="040F"/>
  
  <outline>
    <component base="cap" xOffset="0" yOffset="425.000" />
    <component base="cap" xOffset="0" yOffset="574.000" />
    <contour>
      <point x="0.000" y="425.500" type="line"/>
      <point x="0.000" y="574.500" type="line"/>
      <point x="1.000" y="574.500" type="line"/>
      <point x="1.000" y="425.500" type="line"/>
    </contour>
  </outline>
</glyph>
<glyph name="_17.center" format="2">
  <advance width="1000"/>
  <unicode hex="0411"/>
  
  <outline>
    <component base="cap" xOffset="0" yOffset="415.000" />
    <component base="cap" xOffset="0" yOffset="584.000" />
    <contour>
      <point x="0.000" y="415.500" type="line"/>
      <point x="0.000" y="584.500" type="line"/>
      <point x="1.000" y="584.500" type="line"/>
      <point x="1.000" y="415.500" type="line"/>
    </contour>
  </outline>
</glyph>
<glyph name="_25.center" format="2">
  <advance width="1000"/>
  <unicode hex="0419"/>
  
  <outline>
    <component base="cap" xOffset="0" yOffset="375.000" />
    <component base="cap" xOffset="0" yOffset="624.000" />
    <contour>
      <point x="0.000" y="375.500" type="line"/>
      <point x="0.000" y="624.500" type="line"/>
      <point x="1.000" y="624.500" type="line"/>
      <point x="1.000" y="375.500" type="line"/>
    </contour>
  </outline>
</glyph>
<glyph name="_30.center" format="2">
  <advance width="1000"/>
  <unicode hex="041E"/>
  
  <outline>
    <component base="cap" xOffset="0" yOffset="350.000" />
    <component base="cap" xOffset="0" yOffset="649.000" />
    <contour>
      <point x="0.000" y="350.500" type="line"/>
      <point x="0.000" y="649.500" type="line"/>
      <point x="1.000" y="649.500" type="line"/>
      <point x="1.000" y="350.500" type="line"/>
    </contour>
  </outline>
</glyph>
<glyph name="_31.center" format="2">
  <advance width="1000"/>
  <unicode hex="041F"/>
  
  <outline>
    <component base="cap" xOffset="0" yOffset="345.000" />
    <component base="cap" xOffset="0" yOffset="654.000" />
    <contour>
      <point x="0.000" y="345.500" type="line"/>
      <point x="0.000" y="654.500" type="line"/>
      <point x="1.000" y="654.500" type="line"/>
      <point x="1.000" y="345.500" type="line"/>
    </contour>
  </outline>
</glyph>
<glyph name="_39.center" format="2">
  <advance width="1000"/>
  <unicode hex="0427"/>
  
  <outline>
    <component base="cap" xOffset="0" yOffset="305.000" />
    <component base="cap" xOffset="0" yOffset="694.000" />
    <contour>
      <point x="0.000" y="305.500" type="line"/>
      <point x="0.000" y="694.500" type="line"/>
      <point x="1.000" y="694.500" type="line"/>
      <point x="1.000" y="305.500" type="line"/>
    </contour>
  </outline>
</glyph>
<glyph name="_43.center" format="2">
  <advance width="1000"/>
  <unicode hex="042B"/>
  
  <outline>
    <component base="cap" xOffset="0" yOffset="285.000" />
    <component base="cap" xOffset="0" yOffset="714.000" />
    <contour>
      <point x="0.000" y="285.500" type="line"/>
      <point x="0.000" y="714.500" type="line"/>
      <point x="1.000" y="714.500" type="line"/>
      <point x="1.000" y="285.500" type="line"/>
    </contour>
  </outline>
</glyph>
<glyph name="_46.center" format="2">
  <advance width="1000"/>
  <unicode hex="042E"/>
  
  <outline>
    <component base="cap" xOffset="0" yOffset="270.000" />
    <component base="cap" xOffset="0" yOffset="729.000" />
    <contour>
      <point x="0.000" y="270.500" type="line"/>
      <point x="0.000" y="729.500" type="line"/>
      <point x="1.000" y="729.500" type="line"/>
      <point x="1.000" y="270.500" type="line"/>
    </contour>
  </outline>
</glyph>
<glyph name="_51.center" format="2">
  <advance width="1000"/>
  <unicode hex="0433"/>
  
  <outline>
    <component base="cap" xOffset="0" yOffset="245.000" />
    <component base="cap" xOffset="0" yOffset="754.000" />
    <contour>
      <point x="0.000" y="245.500" type="line"/>
      <point x="0.000" y="754.500" type="line"/>
      <point x="1.000" y="754.500" type="line"/>
      <point x="1.000" y="245.500" type="line"/>
    </contour>
  </outline>
</glyph>
<glyph name="_54.center" format="2">
  <advance width="1000"/>
  <unicode hex="0436"/>
  
  <outline>
    <component base="cap" xOffset="0" yOffset="230.000" />
    <component base="cap" xOffset="0" yOffset="769.000" />
    <contour>
      <point x="0.000" y="230.500" type="line"/>
      <point x="0.000" y="769.500" type="line"/>
      <point x="1.000" y="769.500" type="line"/>
      <point x="1.000" y="230.500" type="line"/>
    </contour>
  </outline>
</glyph>
<glyph name="_55.center" format="2">
  <advance width="1000"/>
  <unicode hex="0437"/>
  
  <outline>
    <component base="cap" xOffset="0" yOffset="225.000" />
    <component base="cap" xOffset="0" yOffset="774.000" />
    <contour>
      <point x="0.000" y="225.500" type="line"/>
      <point x="0.000" y="774.500" type="line"/>
      <point x="1.000" y="774.500" type="line"/>
      <point x="1.000" y="225.500" type="line"/>
    </contour>
  </outline>
</glyph>
<glyph name="_57.center" format="2">
  <advance width="1000"/>
  <unicode hex="0439"/>
  
  <outline>
    <component base="cap" xOffset="0" yOffset="215.000" />
    <component base="cap" xOffset="0" yOffset="784.000" />
    <contour>
      <point x="0.000" y="215.500" type="line"/>
      <point x="0.000" y="784.500" type="line"/>
      <point x="1.000" y="784.500" type="line"/>
      <point x="1.000" y="215.500" type="line"/>
    </contour>
  </outline>
</glyph>
<glyph name="_61.center" format="2">
  <advance width="1000"/>
  <unicode hex="043D"/>
  
  <outline>
    <component base="cap" xOffset="0" yOffset="195.000" />
    <component base="cap" xOffset="0" yOffset="804.000" />
    <contour>
      <point x="0.000" y="195.500" type="line"/>
      <point x="0.000" y="804.500" type="line"/>
      <point x="1.000" y="804.500" type="line"/>
      <point x="1.000" y="195.500" type="line"/>
    </contour>
  </outline>
</glyph>
<glyph name="_64.center" format="2">
  <advance width="1000"/>
  <unicode hex="0440"/>
  
  <outline>
    <component base="cap" xOffset="0" yOffset="180.000" />
    <component base="cap" xOffset="0" yOffset="819.000" />
    <contour>
      <point x="0.000" y="180.500" type="line"/>
      <point x="0.000" y="819.500" type="line"/>
      <point x="1.000" y="819.500" type="line"/>
      <point x="1.000" y="180.500" type="line"/>
    </contour>
  </outline>
</glyph>
<glyph name="_68.center" format="2">
  <advance width="1000"/>
  <unicode hex="0444"/>
  
  <outline>
    <component base="cap" xOffset="0" yOffset="160" />
    <component base="cap" xOffset="0" yOffset="839" />
    <contour>
      <point x="0" y="161" type="line"/>
      <point x="0" y="840" type="line"/>
      <point x="1" y="840" type="line"/>
      <point x="1" y="161" type="line"/>
    </contour>
  </outline>
</glyph>
<glyph name="_76.center" format="2">
  <advance width="1000"/>
  <unicode hex="044C"/>
  
  <outline>
    <component base="cap" xOffset="0" yOffset="120.000" />
    <component base="cap" xOffset="0" yOffset="879.000" />
    <contour>
      <point x="0.000" y="120.500" type="line"/>
      <point x="0.000" y="879.500" type="line"/>
      <point x="1.000" y="879.500" type="line"/>
      <point x="1.000" y="120.500" type="line"/>
    </contour>
  </outline>
</glyph>
<glyph name="_84.center" format="2">
  <advance width="1000"/>
  <unicode hex="0454"/>
  
  <outline>
    <component base="cap" xOffset="0" yOffset="80.000" />
    <component base="cap" xOffset="0" yOffset="919.000" />
    <contour>
      <point x="0.000" y="80.500" type="line"/>
      <point x="0.000" y="919.500" type="line"/>
      <point x="1.000" y="919.500" type="line"/>
      <point x="1.000" y="80.500" type="line"/>
    </contour>
  </outline>
</glyph>
<glyph name="_86.center" format="2">
  <advance width="1000"/>
  <unicode hex="0456"/>
  
  <outline>
    <component base="cap" xOffset="0" yOffset="70.000" />
    <component base="cap" xOffset="0" yOffset="929.000" />
    <contour>
      <point x="0.000" y="70.500" type="line"/>
      <point x="0.000" y="929.500" type="line"/>
      <point x="1.000" y="929.500" type="line"/>
      <point x="1.000" y="70.500" type="line"/>
    </contour>
  </outline>
</glyph>
<glyph name="_88.center" format="2">
  <advance width="1000"/>
  <unicode hex="0458"/>
  
  <outline>
    <component base="cap" xOffset="0" yOffset="60.000" />
    <component base="cap" xOffset="0" yOffset="939.000" />
    <contour>
      <point x="0.000" y="60.500" type="line"/>
      <point x="0.000" y="939.500" type="line"/>
      <point x="1.000" y="939.500" type="line"/>
      <point x="1.000" y="60.500" type="line"/>
    </contour>
  </outline>
</glyph>
<glyph name="_90.center" format="2">
  <advance width="1000"/>
  <unicode hex="045A"/>
  
  <outline>
    <component base="cap" xOffset="0" yOffset="50.000" />
    <component base="cap" xOffset="0" yOffset="949.000" />
    <contour>
      <point x="0.000" y="50.500" type="line"/>
      <point x="0.000" y="949.500" type="line"/>
      <point x="1.000" y="949.500" type="line"/>
      <point x="1.000" y="50.500" type="line"/>
    </contour>
  </outline>
</glyph>
<glyph name="_91.center" format="2">
  <advance width="1000"/>
  <unicode hex="045B"/>
  
  <outline>
    <component base="cap" xOffset="0" yOffset="45.000" />
    <component base="cap" xOffset="0" yOffset="954.000" />
    <contour>
      <point x="0.000" y="45.500" type="line"/>
      <point x="0.000" y="954.500" type="line"/>
      <point x="1.000" y="954.500" type="line"/>
      <point x="1.000" y="45.500" type="line"/>
    </contour>
  </outline>
</glyph>
<glyph name="_92.center" format="2">
  <advance width="1000"/>
  <unicode hex="045C"/>
  
  <outline>
    <component base="cap" xOffset="0" yOffset="40" />
    <component base="cap" xOffset="0" yOffset="959" />
    <contour>
      <point x="0" y="41" type="line"/>
      <point x="0" y="960" type="line"/>
      <point x="1" y="960" type="line"/>
      <point x="1" y="41" type="line"/>
    </contour>
  </outline>
</glyph>
<glyph name="_95.center" format="2">
  <advance width="1000"/>
  <unicode hex="045F"/>
  
  <outline>
    <component base="cap" xOffset="0" yOffset="25.000" />
    <component base="cap" xOffset="0" yOffset="974.000" />
    <contour>
      <point x="0.000" y="25.500" type="line"/>
      <point x="0.000" y="974.500" type="line"/>
      <point x="1.000" y="974.500" type="line"/>
      <point x="1.000" y="25.500" type="line"/>
    </contour>
  </outline>
</glyph>
<glyph name="_96.center" format="2">
  <advance width="1000"/>
  <unicode hex="0460"/>
  
  <outline>
    <component base="cap" xOffset="0" yOffset="20.000" />
    <component base="cap" xOffset="0" yOffset="979.000" />
    <contour>
      <point x="0.000" y="20.500" type="line"/>
      <point x="0.000" y="979.500" type="line"/>
      <point x="1.000" y="979.500" type="line"/>
      <point x="1.000" y="20.500" type="line"/>
    </contour>
  </outline>
</glyph>
<glyph name="_101.center" format="2">
  <advance width="1000"/>
  <unicode hex="0465"/>
  
  <outline>
    <component base="cap" xOffset="0" yOffset="-5.000" />
    <component base="cap" xOffset="0" yOffset="1004.000" />
    <contour>
      <point x="0.000" y="-4.500" type="line"/>
      <point x="0.000" y="1004.500" type="line"/>
      <point x="1.000" y="1004.500" type="line"/>
      <point x="1.000" y="-4.500" type="line"/>
    </contour>
  </outline>
</glyph>
<glyph name="_103.center" format="2">
  <advance width="1000"/>
  <unicode hex="0467"/>
  
  <outline>
    <component base="cap" xOffset="0" yOffset="-15.000" />
    <component base="cap" xOffset="0" yOffset="1014.000" />
    <contour>
      <point x="0.000" y="-14.500" type="line"/>
      <point x="0.000" y="1014.500" type="line"/>
      <point x="1.000" y="1014.500" type="line"/>
      <point x="1.000" y="-14.500" type="line"/>
    </contour>
  </outline>
</glyph>
<glyph name="_22.clip.center" format="2">
  <advance width="1000"/>
  
  <outline>
    <contour>
        <point x="0.000" y="560.500"/>

        <point x="49.500" y="610.000"/>
        <point x="110.000" y="610.000" type="curve" smooth="yes"/>
        <point x="-109.000" y="610.000" type="line"/>
        <point x="-48.500" y="610.000"/>

        <point x="1.000" y="560.500"/>
        <point x="1.000" y="500.000" type="curve" smooth="yes"/>
        <point x="1.000" y="500.000" type="line"/>
        <point x="1.000" y="439.500"/>

        <point x="-48.500" y="390.000"/>
        <point x="-109.000" y="390.000" type="curve" smooth="yes"/>
        <point x="110.000" y="390.000" type="line"/>
        <point x="49.500" y="390.000"/>

        <point x="0.000" y="439.500"/>
        <point x="0.000" y="500.000" type="curve" smooth="yes"/>
        <point x="0.000" y="500.000" type="line"/>
    </contour>
  </outline>
</glyph>
<glyph name="_24.clip.center" format="2">
  <advance width="1000"/>
  
  <outline>
    <contour>
        <point x="0.000" y="566.000"/>

        <point x="54.000" y="620.000"/>
        <point x="120.000" y="620.000" type="curve" smooth="yes"/>
        <point x="-119.000" y="620.000" type="line"/>
        <point x="-53.000" y="620.000"/>

        <point x="1.000" y="566.000"/>
        <point x="1.000" y="500.000" type="curve" smooth="yes"/>
        <point x="1.000" y="500.000" type="line"/>
        <point x="1.000" y="434.000"/>

        <point x="-53.000" y="380.000"/>
        <point x="-119.000" y="380.000" type="curve" smooth="yes"/>
        <point x="120.000" y="380.000" type="line"/>
        <point x="54.000" y="380.000"/>

        <point x="0.000" y="434.000"/>
        <point x="0.000" y="500.000" type="curve" smooth="yes"/>
        <point x="0.000" y="500.000" type="line"/>
    </contour>
  </outline>
</glyph>
<glyph name="_30.clip" format="2">
  <advance width="1000"/>
  
  <outline>
    <contour>
        <point x="0.000" y="232.500"/>

        <point x="67.500" y="300.000"/>
        <point x="150.000" y="300.000" type="curve" smooth="yes"/>
        <point x="-149.000" y="300.000" type="line"/>
        <point x="-66.500" y="300.000"/>

        <point x="1.000" y="232.500"/>
        <point x="1.000" y="150.000" type="curve" smooth="yes"/>
        <point x="1.000" y="150.000" type="line"/>
        <point x="1.000" y="67.500"/>

        <point x="-66.500" y="0.000"/>
        <point x="-149.000" y="0.000" type="curve" smooth="yes"/>
        <point x="150.000" y="0.000" type="line"/>
        <point x="67.500" y="0.000"/>

        <point x="0.000" y="67.500"/>
        <point x="0.000" y="150.000" type="curve" smooth="yes"/>
        <point x="0.000" y="150.000" type="line"/>
    </contour>
  </outline>
</glyph>
<glyph name="_32.clip.center" format="2">
  <advance width="1000"/>
  
  <outline>
    <contour>
        <point x="0.000" y="588.000"/>

        <point x="72.000" y="660.000"/>
        <point x="160.000" y="660.000" type="curve" smooth="yes"/>
        <point x="-159.000" y="660.000" type="line"/>
        <point x="-71.000" y="660.000"/>

        <point x="1.000" y="588.000"/>
        <point x="1.000" y="500.000" type="curve" smooth="yes"/>
        <point x="1.000" y="500.000" type="line"/>
        <point x="1.000" y="412.000"/>

        <point x="-71.000" y="340.000"/>
        <point x="-159.000" y="340.000" type="curve" smooth="yes"/>
        <point x="160.000" y="340.000" type="line"/>
        <point x="72.000" y="340.000"/>

        <point x="0.000" y="412.000"/>
        <point x="0.000" y="500.000" type="curve" smooth="yes"/>
        <point x="0.000" y="500.000" type="line"/>
    </contour>
  </outline>
</glyph>
<glyph name="_34.clip" format="2">
  <advance width="1000"/>
  
  <outline>
    <contour>
        <point x="0.000" y="263.500"/>

        <point x="76.500" y="340.000"/>
        <point x="170.000" y="340.000" type="curve" smooth="yes"/>
        <point x="-169.000" y="340.000" type="line"/>
        <point x="-75.500" y="340.000"/>

        <point x="1.000" y="263.500"/>
        <point x="1.000" y="170.000" type="curve" smooth="yes"/>
        <point x="1.000" y="170.000" type="line"/>
        <point x="1.000" y="76.500"/>

        <point x="-75.500" y="0.000"/>
        <point x="-169.000" y="0.000" type="curve" smooth="yes"/>
        <point x="170.000" y="0.000" type="line"/>
        <point x="76.500" y="0.000"/>

        <point x="0.000" y="76.500"/>
        <point x="0.000" y="170.000" type="curve" smooth="yes"/>
        <point x="0.000" y="170.000" type="line"/>
    </contour>
  </outline>
</glyph>
<glyph name="_5.clip.center" format="2">
  <advance width="1000"/>
  
  <outline>
    <contour>
        <point x="0.000" y="513.750"/>

        <point x="11.250" y="525.000"/>
        <point x="25.000" y="525.000" type="curve" smooth="yes"/>
        <point x="-24.000" y="525.000" type="line"/>
        <point x="-10.250" y="525.000"/>

        <point x="1.000" y="513.750"/>
        <point x="1.000" y="500.000" type="curve" smooth="yes"/>
        <point x="1.000" y="500.000" type="line"/>
        <point x="1.000" y="486.250"/>

        <point x="-10.250" y="475.000"/>
        <point x="-24.000" y="475.000" type="curve" smooth="yes"/>
        <point x="25.000" y="475.000" type="line"/>
        <point x="11.250" y="475.000"/>

        <point x="0.000" y="486.250"/>
        <point x="0.000" y="500.000" type="curve" smooth="yes"/>
        <point x="0.000" y="500.000" type="line"/>
    </contour>
  </outline>
</glyph>
<glyph name="_57.clip.center" format="2">
  <advance width="1000"/>
  
  <outline>
    <contour>
        <point x="0.000" y="656.750"/>

        <point x="128.250" y="785.000"/>
        <point x="285.000" y="785.000" type="curve" smooth="yes"/>
        <point x="-284.000" y="785.000" type="line"/>
        <point x="-127.250" y="785.000"/>

        <point x="1.000" y="656.750"/>
        <point x="1.000" y="500.000" type="curve" smooth="yes"/>
        <point x="1.000" y="500.000" type="line"/>
        <point x="1.000" y="343.250"/>

        <point x="-127.250" y="215.000"/>
        <point x="-284.000" y="215.000" type="curve" smooth="yes"/>
        <point x="285.000" y="215.000" type="line"/>
        <point x="128.250" y="215.000"/>

        <point x="0.000" y="343.250"/>
        <point x="0.000" y="500.000" type="curve" smooth="yes"/>
        <point x="0.000" y="500.000" type="line"/>
    </contour>
  </outline>
</glyph>
<glyph name="_62.clip.center" format="2">
  <advance width="1000"/>
  
  <outline>
    <contour>
        <point x="0.000" y="670.500"/>

        <point x="139.500" y="810.000"/>
        <point x="310.000" y="810.000" type="curve" smooth="yes"/>
        <point x="-309.000" y="810.000" type="line"/>
        <point x="-138.500" y="810.000"/>

        <point x="1.000" y="670.500"/>
        <point x="1.000" y="500.000" type="curve" smooth="yes"/>
        <point x="1.000" y="500.000" type="line"/>
        <point x="1.000" y="329.500"/>

        <point x="-138.500" y="190.000"/>
        <point x="-309.000" y="190.000" type="curve" smooth="yes"/>
        <point x="310.000" y="190.000" type="line"/>
        <point x="139.500" y="190.000"/>

        <point x="0.000" y="329.500"/>
        <point x="0.000" y="500.000" type="curve" smooth="yes"/>
        <point x="0.000" y="500.000" type="line"/>
    </contour>
  </outline>
</glyph>
<glyph name="_68.clip.center" format="2">
  <advance width="1000"/>
  
  <outline>
    <contour>
        <point x="0.000" y="687.000"/>

        <point x="153.000" y="840.000"/>
        <point x="340.000" y="840.000" type="curve" smooth="yes"/>
        <point x="-339.000" y="840.000" type="line"/>
        <point x="-152.000" y="840.000"/>

        <point x="1.000" y="687.000"/>
        <point x="1.000" y="500.000" type="curve" smooth="yes"/>
        <point x="1.000" y="500.000" type="line"/>
        <point x="1.000" y="313.000"/>

        <point x="-152.000" y="160.000"/>
        <point x="-339.000" y="160.000" type="curve" smooth="yes"/>
        <point x="340.000" y="160.000" type="line"/>
        <point x="153.000" y="160.000"/>

        <point x="0.000" y="313.000"/>
        <point x="0.000" y="500.000" type="curve" smooth="yes"/>
        <point x="0.000" y="500.000" type="line"/>
    </contour>
  </outline>
</glyph>
<glyph name="_74.clip" format="2">
  <advance width="1000"/>
  
  <outline>
    <contour>
        <point x="0.000" y="573.500"/>

        <point x="166.500" y="740.000"/>
        <point x="370.000" y="740.000" type="curve" smooth="yes"/>
        <point x="-369.000" y="740.000" type="line"/>
        <point x="-165.500" y="740.000"/>

        <point x="1.000" y="573.500"/>
        <point x="1.000" y="370.000" type="curve" smooth="yes"/>
        <point x="1.000" y="370.000" type="line"/>
        <point x="1.000" y="166.500"/>

        <point x="-165.500" y="0.000"/>
        <point x="-369.000" y="0.000" type="curve" smooth="yes"/>
        <point x="370.000" y="0.000" type="line"/>
        <point x="166.500" y="0.000"/>

        <point x="0.000" y="166.500"/>
        <point x="0.000" y="370.000" type="curve" smooth="yes"/>
        <point x="0.000" y="370.000" type="line"/>
    </contour>
  </outline>
</glyph>
<glyph name="_79.clip" format="2">
  <advance width="1000"/>
  
  <outline>
    <contour>
        <point x="0.000" y="612.250"/>

        <point x="177.750" y="790.000"/>
        <point x="395.000" y="790.000" type="curve" smooth="yes"/>
        <point x="-394.000" y="790.000" type="line"/>
        <point x="-176.750" y="790.000"/>

        <point x="1.000" y="612.250"/>
        <point x="1.000" y="395.000" type="curve" smooth="yes"/>
        <point x="1.000" y="395.000" type="line"/>
        <point x="1.000" y="177.750"/>

        <point x="-176.750" y="0.000"/>
        <point x="-394.000" y="0.000" type="curve" smooth="yes"/>
        <point x="395.000" y="0.000" type="line"/>
        <point x="177.750" y="0.000"/>

        <point x="0.000" y="177.750"/>
        <point x="0.000" y="395.000" type="curve" smooth="yes"/>
        <point x="0.000" y="395.000" type="line"/>
    </contour>
  </outline>
</glyph>
<glyph name="_88.clip" format="2">
  <advance width="1000"/>
  
  <outline>
    <contour>
        <point x="0.000" y="682.000"/>

        <point x="198.000" y="880.000"/>
        <point x="440.000" y="880.000" type="curve" smooth="yes"/>
        <point x="-439.000" y="880.000" type="line"/>
        <point x="-197.000" y="880.000"/>

        <point x="1.000" y="682.000"/>
        <point x="1.000" y="440.000" type="curve" smooth="yes"/>
        <point x="1.000" y="440.000" type="line"/>
        <point x="1.000" y="198.000"/>

        <point x="-197.000" y="0.000"/>
        <point x="-439.000" y="0.000" type="curve" smooth="yes"/>
        <point x="440.000" y="0.000" type="line"/>
        <point x="198.000" y="0.000"/>

        <point x="0.000" y="198.000"/>
        <point x="0.000" y="440.000" type="curve" smooth="yes"/>
        <point x="0.000" y="440.000" type="line"/>
    </contour>
  </outline>
</glyph>
